<svg version="1.1" id="Layer_1" xmlns="http://www.w3.org/2000/svg" xmlns:xlink="http://www.w3.org/1999/xlink" x="0px" y="0px"
	 width="100%" viewBox="0 0 240 224" enable-background="new 0 0 240 224" xml:space="preserve">
<path fill="#000000" opacity="1.000000" stroke="none" 
	d="
M170.450806,194.497528 
	C121.867447,232.088928 50.564972,203.721008 41.589863,143.568497 
	C34.727772,97.577744 66.246147,56.130207 112.150635,50.856384 
	C114.950745,50.534687 117.812233,50.604935 120.639221,50.690067 
	C126.007233,50.851715 129.260834,54.019699 129.314896,58.949696 
	C129.368622,63.848610 126.177292,67.099998 120.802299,67.335129 
	C101.924202,68.160988 85.685059,74.865967 73.321106,89.406570 
	C57.186642,108.381462 52.869949,130.154373 61.764133,153.309830 
	C70.607994,176.334274 87.901489,190.150635 112.696793,193.779465 
	C147.295944,198.843094 177.509186,173.781677 183.162903,143.527451 
	C183.923828,139.455582 184.297363,135.299210 184.641708,131.164612 
	C185.084091,125.853020 188.235962,122.601471 193.138382,122.696259 
	C198.033234,122.790894 201.344391,126.098572 201.304138,131.444397 
	C201.110031,157.226379 190.685791,178.081757 170.450806,194.497528 
z"/>
<path fill="#000000" opacity="1.000000" stroke="none" 
	d="
M150.012909,103.677231 
	C147.321945,98.522224 149.045273,94.719704 152.578781,91.256470 
	C158.885849,85.074867 165.146683,78.845787 171.390533,72.600243 
	C172.669327,71.321114 173.788361,69.882256 175.322235,68.126450 
	C172.078934,66.772278 169.105621,67.497246 166.253601,67.368881 
	C160.184326,67.095726 156.609055,63.984825 156.698959,58.850758 
	C156.789993,53.652039 160.260818,50.684895 166.476868,50.662571 
	C177.808945,50.621876 189.142715,50.757839 200.472656,50.597942 
	C204.129669,50.546326 205.458191,51.790340 205.404388,55.495220 
	C205.234985,67.158295 205.405853,78.825890 205.309540,90.490623 
	C205.264877,95.900078 202.052689,99.219398 197.189438,99.304619 
	C192.410141,99.388359 189.053986,96.042236 188.701797,90.756477 
	C188.591187,89.096527 188.653992,87.424698 188.647095,85.758263 
	C188.640244,84.102142 188.645584,82.445961 188.645584,80.258476 
	C185.993591,81.253448 184.746384,83.285950 183.185593,84.821838 
	C176.771759,91.133339 170.499664,97.589111 164.072357,103.886589 
	C159.146790,108.712639 155.398132,108.673729 150.012909,103.677231 
z"/>
<path fill="#000000" opacity="1.000000" stroke="none" 
	d="
M96.984505,144.074448 
	C103.494774,141.523911 104.513527,141.997955 106.418892,147.972839 
	C109.721283,158.328537 123.848778,162.299500 132.191849,155.217133 
	C138.371780,149.971024 137.762619,141.996796 130.749847,137.754791 
	C125.881264,134.809814 120.377396,133.279129 115.157753,131.114731 
	C109.497658,128.767670 104.412064,125.692383 101.902954,119.710266 
	C98.057716,110.542625 102.525345,99.998672 112.008415,96.317139 
	C114.924881,95.184906 117.148201,94.097328 116.694145,90.453201 
	C116.288353,87.196388 118.274231,86.631836 120.998604,86.629410 
	C123.724846,86.626984 125.700928,87.192329 125.314438,90.448677 
	C124.928619,93.699348 126.570518,95.086876 129.439590,96.225548 
	C135.373840,98.580727 139.222809,102.980721 140.535461,109.370079 
	C140.971680,111.493324 142.705093,114.326355 139.273849,115.105385 
	C136.406815,115.756325 133.131241,116.376656 131.704056,111.858681 
	C129.346695,104.396187 123.242729,101.786095 115.994263,104.321815 
	C111.995247,105.720779 110.200371,108.812477 109.632835,112.553528 
	C109.101570,116.055496 111.272545,118.516396 114.125916,120.271797 
	C119.129906,123.350258 124.838280,124.793564 130.189514,127.068939 
	C137.934128,130.362015 144.127472,135.133072 145.237274,144.137054 
	C146.494659,154.338379 140.649673,163.015671 130.387421,166.086273 
	C127.166725,167.049957 124.781136,167.927063 125.283974,171.939331 
	C125.670128,175.020584 123.571808,175.371979 121.135353,175.368958 
	C118.540947,175.365738 116.315727,175.061279 116.695724,171.684464 
	C117.068329,168.373413 115.324989,167.119659 112.433380,166.058258 
	C102.491196,162.408829 97.374001,155.062576 96.984505,144.074448 
z"/>
</svg>