<svg version="1.1" id="Layer_1" xmlns="http://www.w3.org/2000/svg" xmlns:xlink="http://www.w3.org/1999/xlink" x="0px" y="0px"
	 width="100%" viewBox="0 0 256 224" enable-background="new 0 0 256 224" xml:space="preserve">
<path fill="#000000" opacity="1.000000" stroke="none" 
	d="
M166.874191,146.657074 
	C168.300400,144.592651 169.717209,143.441605 172.087173,143.850204 
	C176.978775,144.693542 181.893738,145.401413 186.834412,146.170502 
	C187.792496,148.059540 186.392761,149.337738 185.609192,150.689453 
	C180.485947,159.527344 173.525742,166.644547 164.651932,171.644485 
	C161.222092,173.577026 160.082535,175.857712 160.275970,179.623993 
	C160.557678,185.108978 160.399399,190.620056 160.330231,196.118774 
	C160.210129,205.665131 153.274139,212.910492 143.719116,213.258453 
	C137.894119,213.470566 132.048965,213.464615 126.223625,213.256027 
	C116.815063,212.919113 109.800316,205.530762 109.670372,196.011795 
	C109.593033,190.346603 109.482666,184.672668 109.712830,179.015915 
	C109.851578,175.605820 108.665497,173.657227 105.676338,171.852081 
	C88.467636,161.459824 78.538979,146.362000 76.521851,126.132996 
	C73.644226,97.274216 93.570953,69.777313 122.031700,63.732525 
	C125.210999,63.057274 128.440018,61.886162 131.969391,63.383446 
	C130.593094,68.647247 129.310211,73.768784 127.899490,78.854874 
	C127.234940,81.250778 124.880547,81.178185 123.039352,81.769913 
	C95.286293,90.689110 85.071838,122.949791 102.687836,146.179474 
	C107.550789,152.592117 113.833801,157.319977 121.497513,159.635071 
	C126.282295,161.080490 127.593269,163.651154 127.391479,168.328308 
	C127.061363,175.979843 127.414040,183.658340 127.271538,191.321625 
	C127.211052,194.574265 128.435928,195.741455 131.668304,195.688522 
	C144.576248,195.477081 142.507828,197.006500 142.690796,184.897629 
	C142.783936,178.732803 142.868881,172.560211 142.657242,166.401443 
	C142.540085,162.992737 143.843521,161.293594 147.058823,160.257065 
	C154.841888,157.748062 161.397049,153.283234 166.874191,146.657074 
z"/>
<path fill="#000000" opacity="1.000000" stroke="none" 
	d="
M219.030533,89.484390 
	C217.411331,93.459053 219.946259,95.112167 222.343628,96.637428 
	C225.703339,98.774948 226.260483,101.318329 224.067719,104.599434 
	C223.236954,105.842545 222.568985,107.193718 221.811279,108.486526 
	C217.262863,116.247154 217.261353,116.246262 208.525528,114.103218 
	C205.438019,113.345818 196.787598,119.432381 196.216660,122.763939 
	C194.977371,129.995361 194.905533,130.057861 187.672714,130.073074 
	C186.173935,130.076233 184.675125,130.067032 183.176331,130.066193 
	C175.688522,130.061996 175.688522,130.062302 174.066818,122.958794 
	C172.817444,117.486198 164.159195,112.906441 159.022552,115.370247 
	C154.944168,117.326454 152.466675,116.463608 150.693970,112.433022 
	C149.962372,110.769585 148.838852,109.279823 147.908417,107.702324 
	C143.867081,100.850494 143.869049,100.849319 149.808472,95.209488 
	C152.894302,92.279305 152.538681,81.796951 148.870575,79.527130 
	C144.164993,76.615334 143.871094,73.408211 146.923981,69.261627 
	C147.610947,68.328545 148.108063,67.255997 148.696106,66.249710 
	C153.051956,58.795784 153.052231,58.795952 161.380157,60.990231 
	C164.604263,61.839729 173.278458,56.268013 173.944107,52.711777 
	C175.446854,44.683605 174.962799,45.836952 182.975616,45.666382 
	C184.640198,45.630943 186.342331,45.883968 187.964920,45.620579 
	C193.490372,44.723637 195.790665,47.165955 196.295868,52.546879 
	C196.729477,57.165264 206.318329,62.577534 210.408463,60.378460 
	C215.367249,57.712364 218.132126,59.153435 220.155045,63.874977 
	C220.806015,65.394363 221.815308,66.757309 222.620193,68.214188 
	C225.939240,74.221855 227.523071,75.477478 220.613876,79.938271 
	C216.648270,82.498589 219.881927,86.097633 219.030533,89.484390 
M186.877304,73.843826 
	C175.400742,73.379097 167.885574,83.373268 172.326370,93.194656 
	C174.973495,99.049164 181.401459,102.607941 187.354385,101.514748 
	C193.857971,100.320427 198.592148,94.895691 198.892563,88.293526 
	C199.219803,81.101700 195.415787,76.291855 186.877304,73.843826 
z"/>
<path fill="#000000" opacity="1.000000" stroke="none" 
	d="
M71.692841,171.698853 
	C74.653419,167.725754 77.019226,167.954376 80.256371,171.301514 
	C88.690346,180.022079 88.836899,179.880310 80.283592,188.372940 
	C80.047745,188.607147 79.813019,188.842484 79.577827,189.077347 
	C69.779640,198.861542 69.833664,198.811081 60.378765,188.691772 
	C58.291664,186.458023 58.371845,184.885895 60.500572,182.859955 
	C64.230995,179.309631 67.808220,175.598343 71.692841,171.698853 
z"/>
<path fill="#000000" opacity="1.000000" stroke="none" 
	d="
M61.626694,60.227093 
	C58.086563,57.351761 58.526577,55.110706 61.442482,52.234528 
	C70.285606,43.511879 70.182823,43.407509 78.980476,52.276230 
	C79.215096,52.512749 79.440063,52.758839 79.674614,52.995434 
	C89.190544,62.594589 89.134224,62.533333 79.000664,71.874466 
	C76.767479,73.933022 75.219330,73.967552 73.170288,71.819748 
	C69.491508,67.963646 65.658554,64.254623 61.626694,60.227093 
z"/>
<path fill="#000000" opacity="1.000000" stroke="none" 
	d="
M186.735565,185.267639 
	C181.410461,179.954224 181.410461,179.954224 186.605774,174.734726 
	C193.982361,167.323792 193.982162,167.323990 201.463318,174.809799 
	C204.275909,177.624146 207.035858,180.494080 209.922272,183.230606 
	C211.779175,184.991058 211.778748,186.496674 209.938309,188.246109 
	C207.416031,190.643616 204.931915,193.089493 202.559662,195.634155 
	C200.456573,197.890121 198.764877,197.550217 196.779587,195.417374 
	C193.618286,192.021088 190.260513,188.807678 186.735565,185.267639 
z"/>
<path fill="#000000" opacity="1.000000" stroke="none" 
	d="
M144.034149,40.812473 
	C144.429016,45.193222 142.653717,46.528313 138.792984,46.429008 
	C124.102295,46.051167 125.904434,48.460346 125.977600,33.867455 
	C126.055748,18.279821 123.097130,20.946985 139.980972,20.641430 
	C143.055099,20.585798 144.097015,22.028515 144.060303,24.873779 
	C143.993820,30.026691 144.039719,35.181053 144.034149,40.812473 
z"/>
<path fill="#000000" opacity="1.000000" stroke="none" 
	d="
M49.965042,130.087006 
	C48.642689,130.086639 47.811863,130.086655 46.981045,130.084747 
	C33.922535,130.054810 32.566795,128.343704 34.658264,115.129677 
	C35.033810,112.756958 36.319561,112.030258 38.335583,112.017975 
	C44.482361,111.980499 50.629623,112.001083 56.776585,112.026276 
	C59.206375,112.036240 60.438286,113.225716 60.332237,115.737717 
	C60.269234,117.230225 60.354904,118.728340 60.335579,120.223442 
	C60.195038,131.096313 61.722206,129.966858 49.965042,130.087006 
z"/>
</svg>